<mxfile host="app.diagrams.net" agent="Mozilla/5.0 (Windows NT 10.0; Win64; x64) AppleWebKit/537.36 (KHTML, like Gecko) Chrome/141.0.0.0 Safari/537.36 Edg/141.0.0.0" version="28.2.5">
  <diagram name="Trang-1" id="xt_LYlXKM4u0ka0cK6hK">
    <mxGraphModel dx="1273" dy="570" grid="1" gridSize="10" guides="1" tooltips="1" connect="1" arrows="1" fold="1" page="1" pageScale="1" pageWidth="3300" pageHeight="4681" math="0" shadow="0">
      <root>
        <mxCell id="0" />
        <mxCell id="1" parent="0" />
        <mxCell id="LcqdbEIePTFojYsUS71l-3" value="" style="edgeStyle=orthogonalEdgeStyle;rounded=0;orthogonalLoop=1;jettySize=auto;html=1;" edge="1" parent="1" source="LcqdbEIePTFojYsUS71l-1" target="LcqdbEIePTFojYsUS71l-2">
          <mxGeometry relative="1" as="geometry" />
        </mxCell>
        <mxCell id="LcqdbEIePTFojYsUS71l-1" value="Start" style="strokeWidth=2;html=1;shape=mxgraph.flowchart.start_1;whiteSpace=wrap;" vertex="1" parent="1">
          <mxGeometry x="450" y="160" width="120" height="60" as="geometry" />
        </mxCell>
        <mxCell id="LcqdbEIePTFojYsUS71l-5" value="" style="edgeStyle=orthogonalEdgeStyle;rounded=0;orthogonalLoop=1;jettySize=auto;html=1;" edge="1" parent="1" source="LcqdbEIePTFojYsUS71l-2" target="LcqdbEIePTFojYsUS71l-4">
          <mxGeometry relative="1" as="geometry" />
        </mxCell>
        <mxCell id="LcqdbEIePTFojYsUS71l-2" value="Input a, b" style="shape=parallelogram;html=1;strokeWidth=2;perimeter=parallelogramPerimeter;whiteSpace=wrap;rounded=1;arcSize=12;size=0.23;" vertex="1" parent="1">
          <mxGeometry x="430" y="270" width="160" height="60" as="geometry" />
        </mxCell>
        <mxCell id="LcqdbEIePTFojYsUS71l-7" value="" style="edgeStyle=orthogonalEdgeStyle;rounded=0;orthogonalLoop=1;jettySize=auto;html=1;" edge="1" parent="1" source="LcqdbEIePTFojYsUS71l-4" target="LcqdbEIePTFojYsUS71l-6">
          <mxGeometry relative="1" as="geometry" />
        </mxCell>
        <mxCell id="LcqdbEIePTFojYsUS71l-4" value="Sum = a + b" style="rounded=1;whiteSpace=wrap;html=1;absoluteArcSize=1;arcSize=14;strokeWidth=2;" vertex="1" parent="1">
          <mxGeometry x="440" y="380" width="140" height="100" as="geometry" />
        </mxCell>
        <mxCell id="LcqdbEIePTFojYsUS71l-9" value="" style="edgeStyle=orthogonalEdgeStyle;rounded=0;orthogonalLoop=1;jettySize=auto;html=1;" edge="1" parent="1" source="LcqdbEIePTFojYsUS71l-6" target="LcqdbEIePTFojYsUS71l-8">
          <mxGeometry relative="1" as="geometry" />
        </mxCell>
        <mxCell id="LcqdbEIePTFojYsUS71l-6" value="In ra Sum" style="shape=parallelogram;html=1;strokeWidth=2;perimeter=parallelogramPerimeter;whiteSpace=wrap;rounded=1;arcSize=12;size=0.23;" vertex="1" parent="1">
          <mxGeometry x="430" y="530" width="160" height="60" as="geometry" />
        </mxCell>
        <mxCell id="LcqdbEIePTFojYsUS71l-8" value="End" style="strokeWidth=2;html=1;shape=mxgraph.flowchart.start_1;whiteSpace=wrap;" vertex="1" parent="1">
          <mxGeometry x="460" y="630" width="100" height="60" as="geometry" />
        </mxCell>
      </root>
    </mxGraphModel>
  </diagram>
</mxfile>
